<svg width="69" height="51" viewBox="0 0 69 51" fill="none" xmlns="http://www.w3.org/2000/svg">
<g filter="url(#filter0_d)">
<rect x="8" y="4" width="53" height="35" rx="17.5" fill="#BC2E2E"/>
<rect x="8" y="4" width="53" height="35" rx="17.5" fill="url(#paint0_linear)"/>
</g>
<path fill-rule="evenodd" clip-rule="evenodd" d="M32.25 23.1927V28L21 21L32.25 13.5V17.6667C45.4125 17.6667 48 28.5 48 28.5C44.2734 23.6562 39.3938 23.1927 32.25 23.1927Z" fill="white"/>
<mask id="mask0" mask-type="alpha" maskUnits="userSpaceOnUse" x="21" y="13" width="27" height="16">
<path fill-rule="evenodd" clip-rule="evenodd" d="M32.25 23.1927V28L21 21L32.25 13.5V17.6667C45.4125 17.6667 48 28.5 48 28.5C44.2734 23.6562 39.3938 23.1927 32.25 23.1927Z" fill="white"/>
</mask>
<g mask="url(#mask0)">
<rect width="27" height="20" transform="matrix(-1 0 0 1 48 11)" fill="white"/>
</g>
<defs>
<filter id="filter0_d" x="0" y="0" width="69" height="51" filterUnits="userSpaceOnUse" color-interpolation-filters="sRGB">
<feFlood flood-opacity="0" result="BackgroundImageFix"/>
<feColorMatrix in="SourceAlpha" type="matrix" values="0 0 0 0 0 0 0 0 0 0 0 0 0 0 0 0 0 0 127 0"/>
<feOffset dy="4"/>
<feGaussianBlur stdDeviation="4"/>
<feColorMatrix type="matrix" values="0 0 0 0 0 0 0 0 0 0 0 0 0 0 0 0 0 0 0.15 0"/>
<feBlend mode="normal" in2="BackgroundImageFix" result="effect1_dropShadow"/>
<feBlend mode="normal" in="SourceGraphic" in2="effect1_dropShadow" result="shape"/>
</filter>
<linearGradient id="paint0_linear" x1="16" y1="33.5" x2="49.5" y2="4" gradientUnits="userSpaceOnUse">
<stop stop-color="#F9A543" stop-opacity="0.7"/>
<stop offset="1" stop-color="#BC2E2E" stop-opacity="0"/>
</linearGradient>
</defs>
</svg>
