<svg width="163" height="51" viewBox="0 0 163 51" fill="none" xmlns="http://www.w3.org/2000/svg">
<g filter="url(#filter0_d)">
<rect x="8" y="4" width="147" height="35" rx="17.5" fill="#BC2E2E"/>
<rect x="8" y="4" width="147" height="35" rx="17.5" fill="url(#paint0_linear)"/>
</g>
<ellipse cx="135.687" cy="17.3636" rx="2.24164" ry="2.36364" fill="white"/>
<ellipse cx="135.687" cy="26.8182" rx="2.24164" ry="2.36364" fill="white"/>
<ellipse cx="127.841" cy="22.0912" rx="2.24164" ry="2.36364" fill="white"/>
<line y1="-0.5" x2="11.6907" y2="-0.5" transform="matrix(0.862855 -0.505452 0.466138 0.884712 126.721 23.2725)" stroke="white"/>
<line y1="-0.5" x2="12.6705" y2="-0.5" transform="matrix(0.884592 0.466366 -0.428462 0.90356 125.6 22.0908)" stroke="white"/>
<path d="M25.311 19.0283H22.7974V26H21.7715V19.0283H19.2632V18.1797H25.311V19.0283ZM30.8916 22.3853H27.5024V25.1567H31.4395V26H26.4712V18.1797H31.3857V19.0283H27.5024V21.542H30.8916V22.3853ZM33.7598 25.1567H37.4658V26H32.7231V18.1797H33.7598V25.1567ZM39.6787 25.1567H43.3848V26H38.6421V18.1797H39.6787V25.1567ZM49.6743 22.106L51.7153 18.1797H52.8862L50.1899 23.0835V26H49.1587V23.0835L46.4624 18.1797H47.644L49.6743 22.106ZM59.7505 22.3423C59.7505 23.1086 59.6216 23.7782 59.3638 24.3511C59.106 24.9204 58.7407 25.3555 58.2681 25.6562C57.7954 25.957 57.244 26.1074 56.6138 26.1074C55.9979 26.1074 55.4518 25.957 54.9756 25.6562C54.4993 25.3519 54.1287 24.9204 53.8638 24.3618C53.6024 23.7996 53.4681 23.1497 53.4609 22.4121V21.8481C53.4609 21.0962 53.5916 20.432 53.853 19.8555C54.1144 19.279 54.4832 18.8385 54.9595 18.5342C55.4393 18.2262 55.9871 18.0723 56.603 18.0723C57.2297 18.0723 57.7811 18.2244 58.2573 18.5288C58.7371 18.8296 59.106 19.2682 59.3638 19.8447C59.6216 20.4176 59.7505 21.0854 59.7505 21.8481V22.3423ZM58.7246 21.8374C58.7246 20.91 58.5384 20.1992 58.166 19.7051C57.7936 19.2074 57.2726 18.9585 56.603 18.9585C55.9513 18.9585 55.4375 19.2074 55.0615 19.7051C54.6891 20.1992 54.4976 20.8867 54.4868 21.7676V22.3423C54.4868 23.241 54.6748 23.9482 55.0508 24.4639C55.4303 24.9759 55.9513 25.2319 56.6138 25.2319C57.2798 25.2319 57.7954 24.9902 58.1606 24.5068C58.5259 24.0199 58.7139 23.3234 58.7246 22.4175V21.8374ZM66.8027 18.1797V23.4971C66.7992 24.2347 66.5664 24.8381 66.1045 25.3071C65.6462 25.7762 65.0231 26.0394 64.2354 26.0967L63.9614 26.1074C63.1056 26.1074 62.4235 25.8765 61.915 25.4146C61.4066 24.9526 61.1488 24.3171 61.1416 23.5078V18.1797H62.1621V23.4756C62.1621 24.0413 62.3179 24.4818 62.6294 24.7969C62.9409 25.1084 63.3849 25.2642 63.9614 25.2642C64.5451 25.2642 64.9909 25.1084 65.2988 24.7969C65.6104 24.4854 65.7661 24.0467 65.7661 23.481V18.1797H66.8027ZM71.2983 22.8364H69.4614V26H68.4248V18.1797H71.0137C71.8945 18.1797 72.5713 18.3802 73.0439 18.7812C73.5202 19.1823 73.7583 19.766 73.7583 20.5322C73.7583 21.0192 73.6258 21.4435 73.3608 21.8052C73.0994 22.1668 72.7342 22.4372 72.2651 22.6162L74.1021 25.9355V26H72.9956L71.2983 22.8364ZM69.4614 21.9932H71.0459C71.5579 21.9932 71.9644 21.8607 72.2651 21.5957C72.5695 21.3307 72.7217 20.9762 72.7217 20.5322C72.7217 20.0488 72.5767 19.6782 72.2866 19.4204C72.0002 19.1626 71.5848 19.0319 71.0405 19.0283H69.4614V21.9932ZM82.25 22.5464H78.9683V26H77.937V18.1797H82.7817V19.0283H78.9683V21.7031H82.25V22.5464ZM86.8853 22.8364H85.0483V26H84.0117V18.1797H86.6006C87.4814 18.1797 88.1582 18.3802 88.6309 18.7812C89.1071 19.1823 89.3452 19.766 89.3452 20.5322C89.3452 21.0192 89.2127 21.4435 88.9478 21.8052C88.6864 22.1668 88.3211 22.4372 87.8521 22.6162L89.689 25.9355V26H88.5825L86.8853 22.8364ZM85.0483 21.9932H86.6328C87.1449 21.9932 87.5513 21.8607 87.8521 21.5957C88.1564 21.3307 88.3086 20.9762 88.3086 20.5322C88.3086 20.0488 88.1636 19.6782 87.8735 19.4204C87.5871 19.1626 87.1717 19.0319 86.6274 19.0283H85.0483V21.9932ZM91.9019 26H90.8706V18.1797H91.9019V26ZM98.2129 22.3853H94.8237V25.1567H98.7607V26H93.7925V18.1797H98.707V19.0283H94.8237V21.542H98.2129V22.3853ZM106.055 26H105.018L101.081 19.9736V26H100.044V18.1797H101.081L105.029 24.2329V18.1797H106.055V26ZM107.886 26V18.1797H110.094C110.774 18.1797 111.376 18.3301 111.898 18.6309C112.421 18.9316 112.824 19.3595 113.107 19.9146C113.393 20.4696 113.538 21.1069 113.542 21.8267V22.3262C113.542 23.0638 113.399 23.7101 113.112 24.2651C112.829 24.8201 112.423 25.2463 111.893 25.5435C111.367 25.8407 110.753 25.9928 110.051 26H107.886ZM108.917 19.0283V25.1567H110.002C110.797 25.1567 111.415 24.9097 111.855 24.4155C112.299 23.9214 112.521 23.2178 112.521 22.3047V21.8481C112.521 20.9601 112.312 20.2708 111.893 19.7803C111.478 19.2861 110.887 19.0355 110.121 19.0283H108.917ZM117.409 22.5142C116.525 22.2599 115.88 21.9484 115.476 21.5796C115.075 21.2072 114.874 20.7489 114.874 20.2046C114.874 19.5887 115.119 19.0802 115.61 18.6792C116.104 18.2746 116.745 18.0723 117.533 18.0723C118.07 18.0723 118.548 18.1761 118.967 18.3838C119.389 18.5915 119.715 18.8779 119.944 19.2432C120.177 19.6084 120.293 20.0076 120.293 20.4409H119.257C119.257 19.9683 119.106 19.5977 118.806 19.3291C118.505 19.057 118.081 18.9209 117.533 18.9209C117.024 18.9209 116.627 19.0337 116.34 19.2593C116.057 19.4813 115.916 19.791 115.916 20.1885C115.916 20.5072 116.05 20.7775 116.319 20.9995C116.591 21.2179 117.051 21.4185 117.699 21.6011C118.351 21.7837 118.859 21.986 119.225 22.208C119.593 22.4264 119.866 22.6825 120.041 22.9761C120.22 23.2697 120.31 23.6152 120.31 24.0127C120.31 24.6465 120.062 25.1549 119.568 25.5381C119.074 25.9176 118.414 26.1074 117.586 26.1074C117.049 26.1074 116.548 26.0054 116.083 25.8013C115.617 25.5936 115.257 25.3107 115.003 24.9526C114.752 24.5946 114.627 24.1882 114.627 23.7334H115.664C115.664 24.2061 115.837 24.5802 116.185 24.856C116.535 25.1281 117.003 25.2642 117.586 25.2642C118.131 25.2642 118.548 25.1532 118.838 24.9312C119.128 24.7091 119.273 24.4066 119.273 24.0234C119.273 23.6403 119.139 23.3449 118.87 23.1372C118.602 22.9259 118.115 22.7183 117.409 22.5142Z" fill="white"/>
<defs>
<filter id="filter0_d" x="0" y="0" width="163" height="51" filterUnits="userSpaceOnUse" color-interpolation-filters="sRGB">
<feFlood flood-opacity="0" result="BackgroundImageFix"/>
<feColorMatrix in="SourceAlpha" type="matrix" values="0 0 0 0 0 0 0 0 0 0 0 0 0 0 0 0 0 0 127 0"/>
<feOffset dy="4"/>
<feGaussianBlur stdDeviation="4"/>
<feColorMatrix type="matrix" values="0 0 0 0 0 0 0 0 0 0 0 0 0 0 0 0 0 0 0.15 0"/>
<feBlend mode="normal" in2="BackgroundImageFix" result="effect1_dropShadow"/>
<feBlend mode="normal" in="SourceGraphic" in2="effect1_dropShadow" result="shape"/>
</filter>
<linearGradient id="paint0_linear" x1="55" y1="61.5" x2="87" y2="-11" gradientUnits="userSpaceOnUse">
<stop stop-color="#F9A543"/>
<stop offset="1" stop-color="#BC2E2E" stop-opacity="0"/>
</linearGradient>
</defs>
</svg>
