<svg width="163" height="51" viewBox="0 0 163 51" fill="none" xmlns="http://www.w3.org/2000/svg">
<g filter="url(#filter0_d)">
<rect x="8" y="4" width="147" height="35" rx="17.5" fill="#BC2E2E"/>
<rect x="8" y="4" width="147" height="35" rx="17.5" fill="url(#paint0_linear)"/>
</g>
<path fill-rule="evenodd" clip-rule="evenodd" d="M116.904 28.383L121.439 27.3513L119.811 26.084C120.281 25.3129 120.569 24.473 120.683 23.612C120.926 21.7949 120.387 19.9126 119.146 18.5189C119.131 18.5026 119.114 18.4818 119.099 18.4654C119.088 18.453 119.08 18.4426 119.067 18.4328C118.845 18.1907 118.598 17.9616 118.331 17.754C118.328 17.7521 118.323 17.7481 118.321 17.7462C116.029 15.9709 112.913 16.1302 110.807 17.9563L110.805 17.9589C110.777 17.9817 110.751 18.0064 110.725 18.0311C110.713 18.0421 110.703 18.0506 110.691 18.0616C110.675 18.0779 110.657 18.0922 110.641 18.1085C110.619 18.128 110.601 18.1468 110.579 18.1663C110.569 18.1748 110.563 18.1826 110.553 18.191C110.525 18.2184 110.498 18.2457 110.47 18.273C110.468 18.2756 110.468 18.2756 110.466 18.2782C110.322 18.4225 110.185 18.5773 110.056 18.738C110.051 18.7458 110.045 18.7536 110.041 18.7588C110.012 18.7933 109.988 18.8271 109.959 18.8616C109.928 18.9033 109.894 18.9455 109.861 18.9898C109.829 19.034 109.799 19.0757 109.769 19.1219C109.743 19.1583 109.721 19.1941 109.697 19.2325C109.691 19.2403 109.685 19.2481 109.68 19.2559C109.564 19.4309 109.46 19.6112 109.366 19.7902C109.364 19.7928 109.364 19.7928 109.362 19.7954C109.344 19.8305 109.326 19.8657 109.309 19.9008C109.304 19.9132 109.298 19.921 109.293 19.9334C109.281 19.9607 109.266 19.9861 109.256 20.0108C109.246 20.031 109.237 20.0531 109.227 20.0733C109.22 20.0883 109.213 20.1032 109.208 20.1156C109.192 20.1482 109.179 20.1827 109.165 20.2126L109.163 20.2152C108.049 22.8131 108.771 25.9596 111.058 27.7473C112.14 28.585 113.418 29.0055 114.771 28.9779L115.072 28.9712L114.859 26.9227L114.616 26.921C113.751 26.9123 112.962 26.6204 112.27 26.0817C110.493 24.6988 110.128 22.0911 111.472 20.2434C112.817 18.3957 115.342 18.0367 117.119 19.4196C118.79 20.7202 119.327 23.0377 118.257 24.8709L116.407 23.4312L116.904 28.383Z" fill="white"/>
<mask id="mask0" mask-type="alpha" maskUnits="userSpaceOnUse" x="108" y="16" width="14" height="13">
<path fill-rule="evenodd" clip-rule="evenodd" d="M116.904 28.383L121.439 27.3513L119.811 26.084C120.281 25.3129 120.569 24.473 120.683 23.612C120.926 21.7949 120.387 19.9126 119.146 18.5189C119.131 18.5026 119.114 18.4818 119.099 18.4654C119.088 18.453 119.08 18.4426 119.067 18.4328C118.845 18.1907 118.598 17.9616 118.331 17.754C118.328 17.7521 118.323 17.7481 118.321 17.7462C116.029 15.9709 112.913 16.1302 110.807 17.9563L110.805 17.9589C110.777 17.9817 110.751 18.0064 110.725 18.0311C110.713 18.0421 110.703 18.0506 110.691 18.0616C110.675 18.0779 110.657 18.0922 110.641 18.1085C110.619 18.128 110.601 18.1468 110.579 18.1663C110.569 18.1748 110.563 18.1826 110.553 18.191C110.525 18.2184 110.498 18.2457 110.47 18.273C110.468 18.2756 110.468 18.2756 110.466 18.2782C110.322 18.4225 110.185 18.5773 110.056 18.738C110.051 18.7458 110.045 18.7536 110.041 18.7588C110.012 18.7933 109.988 18.8271 109.959 18.8616C109.928 18.9033 109.894 18.9455 109.861 18.9898C109.829 19.034 109.799 19.0757 109.769 19.1219C109.743 19.1583 109.721 19.1941 109.697 19.2325C109.691 19.2403 109.685 19.2481 109.68 19.2559C109.564 19.4309 109.46 19.6112 109.366 19.7902C109.364 19.7928 109.364 19.7928 109.362 19.7954C109.344 19.8305 109.326 19.8657 109.309 19.9008C109.304 19.9132 109.298 19.921 109.293 19.9334C109.281 19.9607 109.266 19.9861 109.256 20.0108C109.246 20.031 109.237 20.0531 109.227 20.0733C109.22 20.0883 109.213 20.1032 109.208 20.1156C109.192 20.1482 109.179 20.1827 109.165 20.2126L109.163 20.2152C108.049 22.8131 108.771 25.9596 111.058 27.7473C112.14 28.585 113.418 29.0055 114.771 28.9779L115.072 28.9712L114.859 26.9227L114.616 26.921C113.751 26.9123 112.962 26.6204 112.27 26.0817C110.493 24.6988 110.128 22.0911 111.472 20.2434C112.817 18.3957 115.342 18.0367 117.119 19.4196C118.79 20.7202 119.327 23.0377 118.257 24.8709L116.407 23.4312L116.904 28.383Z" fill="white"/>
</mask>
<g mask="url(#mask0)">
<rect width="14" height="14" transform="matrix(0.794607 0.606636 -0.581276 0.814065 114.091 13.0137)" fill="white"/>
</g>
<path d="M45.0605 22.5142C44.1761 22.2599 43.5316 21.9484 43.127 21.5796C42.7259 21.2072 42.5254 20.7489 42.5254 20.2046C42.5254 19.5887 42.7707 19.0802 43.2612 18.6792C43.7554 18.2746 44.3963 18.0723 45.1841 18.0723C45.7212 18.0723 46.1992 18.1761 46.6182 18.3838C47.0407 18.5915 47.3665 18.8779 47.5957 19.2432C47.8285 19.6084 47.9448 20.0076 47.9448 20.4409H46.9082C46.9082 19.9683 46.7578 19.5977 46.457 19.3291C46.1562 19.057 45.7319 18.9209 45.1841 18.9209C44.6756 18.9209 44.2782 19.0337 43.9917 19.2593C43.7088 19.4813 43.5674 19.791 43.5674 20.1885C43.5674 20.5072 43.7017 20.7775 43.9702 20.9995C44.2424 21.2179 44.7025 21.4185 45.3506 21.6011C46.0023 21.7837 46.5107 21.986 46.876 22.208C47.2448 22.4264 47.5169 22.6825 47.6924 22.9761C47.8714 23.2697 47.9609 23.6152 47.9609 24.0127C47.9609 24.6465 47.7139 25.1549 47.2197 25.5381C46.7256 25.9176 46.0649 26.1074 45.2378 26.1074C44.7007 26.1074 44.1994 26.0054 43.7339 25.8013C43.2684 25.5936 42.9085 25.3107 42.6543 24.9526C42.4036 24.5946 42.2783 24.1882 42.2783 23.7334H43.3149C43.3149 24.2061 43.4886 24.5802 43.8359 24.856C44.1868 25.1281 44.6541 25.2642 45.2378 25.2642C45.7821 25.2642 46.1992 25.1532 46.4893 24.9312C46.7793 24.7091 46.9243 24.4066 46.9243 24.0234C46.9243 23.6403 46.79 23.3449 46.5215 23.1372C46.2529 22.9259 45.766 22.7183 45.0605 22.5142ZM54.6909 19.0283H52.1772V26H51.1514V19.0283H48.6431V18.1797H54.6909V19.0283ZM59.7397 23.959H56.4634L55.7275 26H54.6641L57.6504 18.1797H58.5527L61.5444 26H60.4863L59.7397 23.959ZM56.7749 23.1104H59.4336L58.1016 19.4526L56.7749 23.1104ZM65.4653 22.8364H63.6284V26H62.5918V18.1797H65.1807C66.0615 18.1797 66.7383 18.3802 67.2109 18.7812C67.6872 19.1823 67.9253 19.766 67.9253 20.5322C67.9253 21.0192 67.7928 21.4435 67.5278 21.8052C67.2664 22.1668 66.9012 22.4372 66.4321 22.6162L68.269 25.9355V26H67.1626L65.4653 22.8364ZM63.6284 21.9932H65.2129C65.7249 21.9932 66.1313 21.8607 66.4321 21.5957C66.7365 21.3307 66.8887 20.9762 66.8887 20.5322C66.8887 20.0488 66.7437 19.6782 66.4536 19.4204C66.1672 19.1626 65.7518 19.0319 65.2075 19.0283H63.6284V21.9932ZM74.3491 19.0283H71.8354V26H70.8096V19.0283H68.3013V18.1797H74.3491V19.0283ZM84.0386 22.3423C84.0386 23.1086 83.9097 23.7782 83.6519 24.3511C83.394 24.9204 83.0288 25.3555 82.5562 25.6562C82.0835 25.957 81.5321 26.1074 80.9019 26.1074C80.286 26.1074 79.7399 25.957 79.2637 25.6562C78.7874 25.3519 78.4168 24.9204 78.1519 24.3618C77.8905 23.7996 77.7562 23.1497 77.749 22.4121V21.8481C77.749 21.0962 77.8797 20.432 78.1411 19.8555C78.4025 19.279 78.7713 18.8385 79.2476 18.5342C79.7274 18.2262 80.2752 18.0723 80.8911 18.0723C81.5177 18.0723 82.0692 18.2244 82.5454 18.5288C83.0252 18.8296 83.394 19.2682 83.6519 19.8447C83.9097 20.4176 84.0386 21.0854 84.0386 21.8481V22.3423ZM83.0127 21.8374C83.0127 20.91 82.8265 20.1992 82.4541 19.7051C82.0817 19.2074 81.5607 18.9585 80.8911 18.9585C80.2394 18.9585 79.7256 19.2074 79.3496 19.7051C78.9772 20.1992 78.7856 20.8867 78.7749 21.7676V22.3423C78.7749 23.241 78.9629 23.9482 79.3389 24.4639C79.7184 24.9759 80.2394 25.2319 80.9019 25.2319C81.5679 25.2319 82.0835 24.9902 82.4487 24.5068C82.814 24.0199 83.002 23.3234 83.0127 22.4175V21.8374ZM88.0562 24.6304L90.2905 18.1797H91.4185L88.5181 26H87.605L84.71 18.1797H85.8325L88.0562 24.6304ZM96.8916 22.3853H93.5024V25.1567H97.4395V26H92.4712V18.1797H97.3857V19.0283H93.5024V21.542H96.8916V22.3853ZM101.591 22.8364H99.7544V26H98.7178V18.1797H101.307C102.188 18.1797 102.864 18.3802 103.337 18.7812C103.813 19.1823 104.051 19.766 104.051 20.5322C104.051 21.0192 103.919 21.4435 103.654 21.8052C103.392 22.1668 103.027 22.4372 102.558 22.6162L104.395 25.9355V26H103.289L101.591 22.8364ZM99.7544 21.9932H101.339C101.851 21.9932 102.257 21.8607 102.558 21.5957C102.862 21.3307 103.015 20.9762 103.015 20.5322C103.015 20.0488 102.87 19.6782 102.58 19.4204C102.293 19.1626 101.878 19.0319 101.333 19.0283H99.7544V21.9932Z" fill="white"/>
<defs>
<filter id="filter0_d" x="0" y="0" width="163" height="51" filterUnits="userSpaceOnUse" color-interpolation-filters="sRGB">
<feFlood flood-opacity="0" result="BackgroundImageFix"/>
<feColorMatrix in="SourceAlpha" type="matrix" values="0 0 0 0 0 0 0 0 0 0 0 0 0 0 0 0 0 0 127 0"/>
<feOffset dy="4"/>
<feGaussianBlur stdDeviation="4"/>
<feColorMatrix type="matrix" values="0 0 0 0 0 0 0 0 0 0 0 0 0 0 0 0 0 0 0.15 0"/>
<feBlend mode="normal" in2="BackgroundImageFix" result="effect1_dropShadow"/>
<feBlend mode="normal" in="SourceGraphic" in2="effect1_dropShadow" result="shape"/>
</filter>
<linearGradient id="paint0_linear" x1="58.5" y1="60" x2="82" y2="-8" gradientUnits="userSpaceOnUse">
<stop stop-color="#F9A543"/>
<stop offset="1" stop-color="#BC2E2E" stop-opacity="0"/>
</linearGradient>
</defs>
</svg>
