<svg version="1.1" viewBox="0.0 0.0 960.0 720.0" fill="none" stroke="none" stroke-linecap="square" stroke-miterlimit="10" xmlns:xlink="http://www.w3.org/1999/xlink" xmlns="http://www.w3.org/2000/svg"><clipPath id="p.0"><path d="m0 0l960.0 0l0 720.0l-960.0 0l0 -720.0z" clip-rule="nonzero"/></clipPath><g clip-path="url(#p.0)"><path fill="#000000" fill-opacity="0.0" d="m0 0l960.0 0l0 720.0l-960.0 0z" fill-rule="evenodd"/><path fill="#000000" fill-opacity="0.0" d="m-132.56693 0l132.56693 0l0 208.7559l-132.56693 0z" fill-rule="evenodd"/><path fill="#999999" d="m-86.843735 21.834373q0.671875 -1.046875 1.84375 -1.6875q1.171875 -0.640625 2.75 -0.640625q1.84375 0 3.328125 0.9375q1.5 0.9375 2.359375 2.671875q0.875 1.734375 0.875 4.015625q0 2.296875 -0.875 4.046875q-0.859375 1.75 -2.359375 2.703125q-1.484375 0.9375 -3.328125 0.9375q-1.546875 0 -2.734375 -0.640625q-1.1875 -0.640625 -1.859375 -1.65625l0 9.171875l-4.546875 0l0 -21.96875l4.546875 0l0 2.109375zm6.515625 5.296875q0 -1.703125 -0.953125 -2.671875q-0.9375 -0.96875 -2.328125 -0.96875q-1.359375 0 -2.3125 0.984375q-0.9375 0.984375 -0.9375 2.6875q0 1.703125 0.9375 2.6875q0.953125 0.984375 2.3125 0.984375q1.359375 0 2.3125 -0.984375q0.96875 -1.0 0.96875 -2.71875zm9.318283 -8.953125q-1.1875 0 -1.953125 -0.703125q-0.765625 -0.703125 -0.765625 -1.75q0 -1.0625 0.765625 -1.765625q0.765625 -0.71875 1.953125 -0.71875q1.1875 0 1.9375 0.71875q0.765625 0.703125 0.765625 1.765625q0 1.046875 -0.765625 1.75q-0.75 0.703125 -1.9375 0.703125zm2.265625 1.546875l0 14.875l-4.546875 0l0 -14.875l4.546875 0zm2.4104462 7.4375q0 -2.3125 0.9375 -4.046875q0.953125 -1.734375 2.6406288 -2.671875q1.703125 -0.9375 3.875 -0.9375q2.8125 0 4.6875 1.46875q1.875 1.46875 2.46875 4.140625l-4.859375 0q-0.609375 -1.71875 -2.375 -1.71875q-1.25 0 -2.0 0.984375q-0.734375 0.96875 -0.734375 2.78125q0 1.8125 0.734375 2.796875q0.75 0.96875 2.0 0.96875q1.765625 0 2.375 -1.71875l4.859375 0q-0.59375 2.625 -2.484375 4.125q-1.890625 1.484375 -4.671875 1.484375q-2.171875 0 -3.875 -0.9375q-1.6875038 -0.9375 -2.6406288 -2.671875q-0.9375 -1.734375 -0.9375 -4.046875zm26.095722 -7.59375q2.609375 0 4.171875 1.6875q1.5625 1.6875 1.5625 4.65625l0 8.6875l-4.53125 0l0 -8.078125q0 -1.484375 -0.78125 -2.3125q-0.765625 -0.828125 -2.078125 -0.828125q-1.3125 0 -2.09375 0.828125q-0.765625 0.828125 -0.765625 2.3125l0 8.078125l-4.546875 0l0 -14.875l4.546875 0l0 1.96875q0.703125 -0.984375 1.875 -1.546875q1.171875 -0.578125 2.640625 -0.578125zm11.184998 -1.390625q-1.1875 0 -1.953125 -0.703125q-0.765625 -0.703125 -0.765625 -1.75q0 -1.0625 0.765625 -1.765625q0.765625 -0.71875 1.953125 -0.71875q1.1875 0 1.9375 0.71875q0.765625 0.703125 0.765625 1.765625q0 1.046875 -0.765625 1.75q-0.75 0.703125 -1.9375 0.703125zm2.265625 1.546875l0 14.875l-4.546875 0l0 -14.875l4.546875 0zm2.4104462 7.4375q0 -2.3125 0.9375 -4.046875q0.953125 -1.734375 2.640625 -2.671875q1.703125 -0.9375 3.875 -0.9375q2.8125 0 4.6875 1.46875q1.875 1.46875 2.46875 4.140625l-4.859375 0q-0.609375 -1.71875 -2.375 -1.71875q-1.25 0 -2.0 0.984375q-0.734375 0.96875 -0.734375 2.78125q0 1.8125 0.734375 2.796875q0.75 0.96875 2.0 0.96875q1.765625 0 2.375 -1.71875l4.859375 0q-0.59375 2.625 -2.484375 4.125q-1.890625 1.484375 -4.671875 1.484375q-2.171875 0 -3.875 -0.9375q-1.6875 -0.9375 -2.640625 -2.671875q-0.9375 -1.734375 -0.9375 -4.046875z" fill-rule="nonzero"/><path fill="#999999" d="m-86.0293 53.959373q0.71875 -1.0 1.984375 -1.671875q1.265625 -0.6875 2.890625 -0.6875q1.890625 0 3.421875 0.9375q1.53125 0.921875 2.421875 2.640625q0.890625 1.71875 0.890625 3.984375q0 2.265625 -0.890625 4.015625q-0.890625 1.75 -2.421875 2.703125q-1.53125 0.953125 -3.421875 0.953125q-1.625 0 -2.875 -0.65625q-1.234375 -0.671875 -2.0 -1.6875l0 9.140625l-3.734375 0l0 -21.796875l3.734375 0l0 2.125zm7.796875 5.203125q0 -1.328125 -0.546875 -2.296875q-0.546875 -0.984375 -1.4375 -1.484375q-0.890625 -0.515625 -1.921875 -0.515625q-1.015625 0 -1.921875 0.53125q-0.890625 0.515625 -1.4375 1.5q-0.53125 0.984375 -0.53125 2.3125q0 1.34375 0.53125 2.328125q0.546875 0.984375 1.4375 1.515625q0.90625 0.515625 1.921875 0.515625q1.03125 0 1.921875 -0.53125q0.890625 -0.546875 1.4375 -1.53125q0.546875 -0.984375 0.546875 -2.34375zm8.432251 -9.09375q-0.984375 0 -1.640625 -0.625q-0.65625 -0.625 -0.65625 -1.5625q0 -0.921875 0.65625 -1.546875q0.65625 -0.625 1.640625 -0.625q0.984375 0 1.640625 0.625q0.65625 0.625 0.65625 1.546875q0 0.9375 -0.65625 1.5625q-0.65625 0.625 -1.640625 0.625zm1.84375 1.765625l0 14.765625l-3.734375 0l0 -14.765625l3.734375 0zm2.7072906 7.375q0 -2.28125 0.9375 -4.0q0.9375038 -1.71875 2.5781288 -2.65625q1.65625 -0.953125 3.796875 -0.953125q2.734375 0 4.53125 1.375q1.8125 1.359375 2.421875 3.84375l-4.03125 0q-0.3125 -0.96875 -1.078125 -1.5q-0.75 -0.546875 -1.875 -0.546875q-1.59375 0 -2.53125 1.15625q-0.9375 1.15625 -0.9375 3.28125q0 2.109375 0.9375 3.28125q0.9375 1.15625 2.53125 1.15625q2.265625 0 2.953125 -2.03125l4.03125 0q-0.609375 2.40625 -2.421875 3.8125q-1.8125 1.40625 -4.53125 1.40625q-2.140625 0 -3.796875 -0.9375q-1.640625 -0.953125 -2.5781288 -2.671875q-0.9375 -1.71875 -0.9375 -4.015625zm25.187626 -7.59375q2.640625 0 4.265625 1.671875q1.625 1.65625 1.625 4.65625l0 8.65625l-3.71875 0l0 -8.15625q0 -1.765625 -0.890625 -2.703125q-0.875 -0.953125 -2.390625 -0.953125q-1.546875 0 -2.4375 0.953125q-0.890625 0.9375 -0.890625 2.703125l0 8.15625l-3.734375 0l0 -14.765625l3.734375 0l0 1.84375q0.734375 -0.96875 1.890625 -1.515625q1.171875 -0.546875 2.546875 -0.546875zm11.33847 -1.546875q-0.984375 0 -1.640625 -0.625q-0.65625 -0.625 -0.65625 -1.5625q0 -0.921875 0.65625 -1.546875q0.65625 -0.625 1.640625 -0.625q0.984375 0 1.640625 0.625q0.65625 0.625 0.65625 1.546875q0 0.9375 -0.65625 1.5625q-0.65625 0.625 -1.640625 0.625zm1.84375 1.765625l0 14.765625l-3.734375 0l0 -14.765625l3.734375 0zm2.7072906 7.375q0 -2.28125 0.9375 -4.0q0.9375 -1.71875 2.578125 -2.65625q1.65625 -0.953125 3.796875 -0.953125q2.734375 0 4.53125 1.375q1.8125 1.359375 2.421875 3.84375l-4.03125 0q-0.3125 -0.96875 -1.078125 -1.5q-0.75 -0.546875 -1.875 -0.546875q-1.59375 0 -2.53125 1.15625q-0.9375 1.15625 -0.9375 3.28125q0 2.109375 0.9375 3.28125q0.9375 1.15625 2.53125 1.15625q2.265625 0 2.953125 -2.03125l4.03125 0q-0.609375 2.40625 -2.421875 3.8125q-1.8125 1.40625 -4.53125 1.40625q-2.140625 0 -3.796875 -0.9375q-1.640625 -0.953125 -2.578125 -2.671875q-0.9375 -1.71875 -0.9375 -4.015625z" fill-rule="nonzero"/><path fill="#999999" d="m-82.27879 104.35l0 -15.40625q0 -0.953125 -0.046875 -1.921875q-0.03125 -0.984375 -0.171875 -1.9375l3.796875 0l0.28125 2.609375l-0.15625 0q0.421875 -1.359375 1.65625 -2.15625q1.25 -0.796875 2.90625 -0.796875q1.765625 0 3.109375 0.890625q1.34375 0.890625 2.109375 2.515625q0.78125 1.609375 0.78125 3.703125q0 2.109375 -0.78125 3.6875q-0.765625 1.5625 -2.109375 2.421875q-1.34375 0.859375 -3.109375 0.859375q-1.65625 0 -2.90625 -0.765625q-1.234375 -0.78125 -1.65625 -2.171875l0.328125 -0.5l0 8.96875l-4.03125 0zm7.125 -8.609375q1.484375 0 2.28125 -0.984375q0.796875 -1.0 0.796875 -2.90625q0 -1.890625 -0.8125 -2.953125q-0.8125 -1.0625 -2.265625 -1.0625q-1.53125 0 -2.328125 1.03125q-0.796875 1.015625 -0.796875 2.9375q0 1.921875 0.796875 2.9375q0.796875 1.0 2.328125 1.0zm9.721695 2.859375l0 -13.515625l4.031254 0l0 13.515625l-4.031254 0zm0.234375 -19.5625l4.343754 0l0 3.78125l-4.343754 0l0 -3.78125zm13.475666 19.78125q-2.1875 0 -3.796875 -0.859375q-1.59375 -0.859375 -2.4375 -2.40625q-0.84375 -1.5625 -0.84375 -3.703125q0 -2.125 0.90625 -3.71875q0.90625 -1.609375 2.53125 -2.5q1.640625 -0.890625 3.8125 -0.890625q1.453125 0 2.828125 0.453125q1.390625 0.453125 2.25 1.21875l-1.078125 2.796875q-0.796875 -0.625 -1.765625 -0.984375q-0.953125 -0.375 -1.859375 -0.375q-1.625 0 -2.5625 1.0q-0.921875 0.984375 -0.921875 2.921875q0 1.984375 0.921875 2.96875q0.921875 0.984375 2.5625 0.984375q0.90625 0 1.859375 -0.34375q0.96875 -0.359375 1.765625 -1.015625l1.078125 2.796875q-0.890625 0.765625 -2.3125 1.21875q-1.40625 0.4375 -2.9375 0.4375zm7.161728 -0.21875l0 -9.65625q0 -0.953125 -0.046875 -1.921875q-0.03125 -0.984375 -0.171875 -1.9375l3.796875 0l0.28125 2.640625l-0.28125 -0.03125q0.6875 -1.4375 1.921875 -2.1875q1.25 -0.765625 2.875 -0.765625q4.765625 0 4.765625 5.671875l0 8.1875l-4.015625 0l0 -8.0q0 -1.4375 -0.53125 -2.078125q-0.515625 -0.640625 -1.640625 -0.640625q-1.328125 0 -2.125 0.859375q-0.796875 0.84375 -0.796875 2.28125l0 7.578125l-4.03125 0zm16.313568 0l0 -13.515625l4.03125 0l0 13.515625l-4.03125 0zm0.234375 -19.5625l4.34375 0l0 3.78125l-4.34375 0l0 -3.78125zm13.475662 19.78125q-2.1875 0 -3.796875 -0.859375q-1.59375 -0.859375 -2.4375 -2.40625q-0.84375 -1.5625 -0.84375 -3.703125q0 -2.125 0.90625 -3.71875q0.90625 -1.609375 2.53125 -2.5q1.640625 -0.890625 3.8125 -0.890625q1.453125 0 2.828125 0.453125q1.390625 0.453125 2.25 1.21875l-1.078125 2.796875q-0.796875 -0.625 -1.765625 -0.984375q-0.953125 -0.375 -1.859375 -0.375q-1.625 0 -2.5625 1.0q-0.921875 0.984375 -0.921875 2.921875q0 1.984375 0.921875 2.96875q0.921875 0.984375 2.5625 0.984375q0.90625 0 1.859375 -0.34375q0.96875 -0.359375 1.765625 -1.015625l1.078125 2.796875q-0.890625 0.765625 -2.3125 1.21875q-1.40625 0.4375 -2.9375 0.4375z" fill-rule="nonzero"/><path fill="#999999" d="m-82.97609 116.05313q2.0 0 3.640625 0.921875q1.640625 0.90625 2.578125 2.578125q0.9375 1.65625 0.9375 3.875q0 2.21875 -0.9375 3.890625q-0.9375 1.65625 -2.578125 2.578125q-1.640625 0.921875 -3.640625 0.921875q-2.734375 0 -4.3125 -1.734375l0 6.6875l-4.15625 0l0 -19.515625l3.96875 0l0 1.65625q1.546875 -1.859375 4.5 -1.859375zm-0.71875 11.34375q1.609375 0 2.625 -1.078125q1.03125 -1.078125 1.03125 -2.890625q0 -1.8125 -1.03125 -2.890625q-1.015625 -1.078125 -2.625 -1.078125q-1.59375 0 -2.625 1.078125q-1.015625 1.078125 -1.015625 2.890625q0 1.8125 1.015625 2.890625q1.03125 1.078125 2.625 1.078125zm10.642746 -11.140625l4.15625 0l0 14.34375l-4.15625 0l0 -14.34375zm2.078125 -2.0q-1.140625 0 -1.859375 -0.65625q-0.71875 -0.671875 -0.71875 -1.65625q0 -0.984375 0.71875 -1.65625q0.71875 -0.671875 1.859375 -0.671875q1.15625 0 1.875 0.640625q0.71875 0.640625 0.71875 1.609375q0 1.03125 -0.71875 1.71875q-0.71875 0.671875 -1.875 0.671875zm12.867252 16.5625q-2.28125 0 -4.109375 -0.9375q-1.8281288 -0.953125 -2.8593788 -2.625q-1.015625 -1.6875 -1.015625 -3.828125q0 -2.125 1.015625 -3.796875q1.03125 -1.6875 2.8593788 -2.625q1.828125 -0.953125 4.109375 -0.953125q2.265625 0 3.953125 0.953125q1.703125 0.9375 2.484375 2.6875l-3.234375 1.734375q-1.125 -1.96875 -3.21875 -1.96875q-1.625 0 -2.703125 1.0625q-1.0625 1.0625 -1.0625 2.90625q0 1.84375 1.0625 2.90625q1.078125 1.0625 2.703125 1.0625q2.125 0 3.21875 -1.96875l3.234375 1.765625q-0.78125 1.703125 -2.484375 2.671875q-1.6875 0.953125 -3.953125 0.953125zm17.55066 -14.765625q2.65625 0 4.296875 1.59375q1.640625 1.59375 1.640625 4.75l0 8.203125l-4.15625 0l0 -7.578125q0 -1.703125 -0.75 -2.53125q-0.75 -0.84375 -2.15625 -0.84375q-1.578125 0 -2.515625 0.96875q-0.921875 0.96875 -0.921875 2.890625l0 7.09375l-4.15625 0l0 -14.34375l3.96875 0l0 1.6875q0.828125 -0.90625 2.046875 -1.390625q1.234375 -0.5 2.703125 -0.5zm9.700653 0.203125l4.15625 0l0 14.34375l-4.15625 0l0 -14.34375zm2.078125 -2.0q-1.140625 0 -1.859375 -0.65625q-0.71875 -0.671875 -0.71875 -1.65625q0 -0.984375 0.71875 -1.65625q0.71875 -0.671875 1.859375 -0.671875q1.15625 0 1.875 0.640625q0.71875 0.640625 0.71875 1.609375q0 1.03125 -0.71875 1.71875q-0.71875 0.671875 -1.875 0.671875zm12.867249 16.5625q-2.28125 0 -4.109375 -0.9375q-1.828125 -0.953125 -2.859375 -2.625q-1.015625 -1.6875 -1.015625 -3.828125q0 -2.125 1.015625 -3.796875q1.03125 -1.6875 2.859375 -2.625q1.828125 -0.953125 4.109375 -0.953125q2.265625 0 3.953125 0.953125q1.703125 0.9375 2.484375 2.6875l-3.234375 1.734375q-1.125 -1.96875 -3.21875 -1.96875q-1.625 0 -2.703125 1.0625q-1.0625 1.0625 -1.0625 2.90625q0 1.84375 1.0625 2.90625q1.078125 1.0625 2.703125 1.0625q2.125 0 3.21875 -1.96875l3.234375 1.765625q-0.78125 1.703125 -2.484375 2.671875q-1.6875 0.953125 -3.953125 0.953125z" fill-rule="nonzero"/><path fill="#999999" d="m-84.629135 149.80313l3.25 0l0 1.546875q1.046875 -0.984375 2.265625 -1.453125q1.234375 -0.484375 2.8125 -0.484375q1.9375 0 3.46875 0.84375q1.53125 0.828125 2.390625 2.359375q0.875 1.53125 0.875 3.5625q0 2.0 -0.875 3.546875q-0.859375 1.546875 -2.390625 2.421875q-1.53125 0.859375 -3.46875 0.859375q-1.46875 0 -2.765625 -0.40625q-1.296875 -0.421875 -2.203125 -1.25l0 7.09375l-3.359375 0l0 -18.640625zm7.5 10.5625q1.8125 0 2.984375 -1.171875q1.171875 -1.171875 1.171875 -3.015625q0 -1.84375 -1.171875 -2.984375q-1.171875 -1.15625 -2.984375 -1.15625q-1.4375 0 -2.5625 0.78125q-1.125 0.765625 -1.578125 2.078125l0 2.578125q0.4375 1.3125 1.5625 2.109375q1.140625 0.78125 2.578125 0.78125zm12.116959 -12.796875q-0.796875 0 -1.34375 -0.53125q-0.546875 -0.53125 -0.546875 -1.34375q0 -0.796875 0.546875 -1.34375q0.546875 -0.546875 1.34375 -0.546875q0.8125 0 1.3593788 0.546875q0.5625 0.546875 0.5625 1.34375q0 0.8125 -0.5625 1.34375q-0.5468788 0.53125 -1.3593788 0.53125zm-1.703125 2.234375l3.4218788 0l0 12.796875l-3.4218788 0l0 -12.796875zm13.791828 13.203125q-2.25 0 -3.9375 -0.796875q-1.6875 -0.8125 -2.625 -2.328125q-0.9375 -1.515625 -0.9375 -3.65625q0 -2.125 0.9375 -3.65625q0.953125 -1.53125 2.640625 -2.34375q1.703125 -0.8125 3.96875 -0.8125q2.984375 0 4.765625 1.171875l0 2.6875q-1.71875 -1.234375 -4.421875 -1.234375q-2.046875 0 -3.265625 1.03125q-1.203125 1.03125 -1.203125 3.15625q0 2.109375 1.203125 3.125q1.21875 1.015625 3.21875 1.015625q2.6875 0 4.640625 -1.28125l0 2.65625q-0.96875 0.640625 -2.1875 0.953125q-1.203125 0.3125 -2.796875 0.3125zm7.6388245 -13.203125l3.25 0l0 1.734375q0.90625 -1.09375 2.15625 -1.609375q1.265625 -0.515625 2.65625 -0.515625q2.578125 0 3.859375 1.40625q1.28125 1.390625 1.28125 3.703125l0 8.078125l-3.359375 0l0 -7.75q0 -2.8125 -2.609375 -2.8125q-1.15625 0 -2.171875 0.546875q-1.0 0.546875 -1.703125 1.640625l0 8.375l-3.359375 0l0 -12.796875zm18.150879 -2.234375q-0.796875 0 -1.34375 -0.53125q-0.546875 -0.53125 -0.546875 -1.34375q0 -0.796875 0.546875 -1.34375q0.546875 -0.546875 1.34375 -0.546875q0.8125 0 1.359375 0.546875q0.5625 0.546875 0.5625 1.34375q0 0.8125 -0.5625 1.34375q-0.546875 0.53125 -1.359375 0.53125zm-1.703125 2.234375l3.421875 0l0 12.796875l-3.421875 0l0 -12.796875zm13.791824 13.203125q-2.25 0 -3.9375 -0.796875q-1.6875 -0.8125 -2.625 -2.328125q-0.9375 -1.515625 -0.9375 -3.65625q0 -2.125 0.9375 -3.65625q0.953125 -1.53125 2.640625 -2.34375q1.703125 -0.8125 3.96875 -0.8125q2.984375 0 4.765625 1.171875l0 2.6875q-1.71875 -1.234375 -4.421875 -1.234375q-2.046875 0 -3.265625 1.03125q-1.203125 1.03125 -1.203125 3.15625q0 2.109375 1.203125 3.125q1.21875 1.015625 3.21875 1.015625q2.6875 0 4.640625 -1.28125l0 2.65625q-0.96875 0.640625 -2.1875 0.953125q-1.203125 0.3125 -2.796875 0.3125z" fill-rule="nonzero"/><path fill="#bed8ef" d="m321.16403 277.88977l0 0c0 -10.489075 8.503082 -18.992126 18.992126 -18.992126l6.871399 0l0 0l38.795288 0l71.53018 0c5.037018 0 9.867737 2.000946 13.429443 5.5626526c3.561737 3.5617065 5.562683 8.392456 5.562683 13.429474l0 47.480316l0 0l0 28.48819l0 0c0 10.489044 -8.503082 18.992126 -18.992126 18.992126l-71.53018 0l-38.274902 28.341187l-0.52038574 -28.341187l-6.871399 0l0 0c-10.489044 0 -18.992126 -8.503082 -18.992126 -18.992126l0 0l0 -28.48819l0 0z" fill-rule="evenodd"/><path fill="#bed8ef" d="m492.50525 277.88977l0 0c0 -10.489075 8.503052 -18.992126 18.992126 -18.992126l66.36743 0l0 0l36.582703 0l5.3963013 0c5.0370483 0 9.867798 2.000946 13.429504 5.5626526c3.5617065 3.5617065 5.562622 8.392456 5.562622 13.429474l0 47.480316l0 0l0 28.48819l0 0c0 10.489044 -8.503052 18.992126 -18.992126 18.992126l-5.3963013 0l0.38726807 27.414734l-36.96997 -27.414734l-66.36743 0l0 0c-10.489075 0 -18.992126 -8.503082 -18.992126 -18.992126l0 0l0 -28.48819l0 0z" fill-rule="evenodd"/><path fill="#000000" fill-opacity="0.0" d="m92.72441 335.3701l774.55115 0l0 271.46457l-774.55115 0z" fill-rule="evenodd"/><path fill="#0b5394" d="m215.15154 457.36694q17.734375 0 30.265625 8.859375q12.54686 8.859375 18.999985 23.6875q6.453125 14.8125 6.453125 32.546875q0 19.515625 -7.46875 34.84375q-7.4687347 15.3125 -21.781235 24.0625q-14.3125 8.734375 -33.5625 8.734375q-7.609375 0 -25.84375 -2.28125l0 65.609375l-20.015625 0l0 -154.53125q0 -19.75 -10.640625 -28.875l13.9375 -12.921875q3.796875 2.28125 7.59375 6.71875q3.796875 4.4375 6.34375 10.265625q6.078125 -7.609375 15.953125 -12.15625q9.875 -4.5625 19.765625 -4.5625zm-8.359375 113.984375q21.265625 0 32.28125 -12.90625q11.03125 -12.921875 11.03125 -34.453125q0 -20.28125 -9.375 -34.078125q-9.375 -13.8125 -25.078125 -13.8125q-12.40625 0 -22.421875 7.984375q-10.0 7.984375 -11.015625 20.390625l0 65.359375q15.203125 1.515625 24.578125 1.515625zm113.23439 -6.328125q0 2.78125 1.765625 4.6875q1.78125 1.90625 4.5625 1.90625q4.0625 0 6.328125 -4.5625l14.953125 9.375q-3.546875 6.578125 -9.25 10.25q-5.703125 3.671875 -13.296875 3.671875q-11.90625 0 -18.875 -6.953125q-6.96875 -6.96875 -6.96875 -19.140625l0 -103.609375l20.78125 0l0 104.375zm-10.546875 -129.4375q-5.0625 0 -9.125 -4.046875q-4.046875 -4.0625 -4.046875 -9.125q0 -5.328125 4.046875 -9.375q4.0625 -4.0625 9.125 -4.0625q5.328125 0 9.5 4.0625q4.1875 4.046875 4.1875 9.375q0 5.0625 -4.1875 9.125q-4.171875 4.046875 -9.5 4.046875zm107.563965 153.5q-28.875 0 -45.09375 -16.71875q-16.203125 -16.71875 -16.203125 -46.359375q0 -20.265625 7.46875 -36.09375q7.46875 -15.828125 20.890625 -24.5625q13.4375 -8.75 30.921875 -8.75q13.921875 0 25.1875 5.703125q11.28125 5.6875 17.234375 15.578125q5.953125 9.875 4.9375 21.78125l-20.265625 0q1.015625 -10.390625 -6.328125 -17.34375q-7.34375 -6.96875 -19.765625 -6.96875q-11.640625 0 -20.640625 6.328125q-8.984375 6.328125 -13.9375 17.984375q-4.9375 11.65625 -4.9375 26.59375q0 21.28125 10.515625 32.6875q10.515625 11.40625 30.015625 11.40625q8.625 0 17.484375 -3.046875q8.859375 -3.046875 22.296875 -10.390625l9.625 15.703125q-22.296875 16.46875 -49.40625 16.46875zm206.9809 -12.65625q-3.546875 6.578125 -9.25 10.25q-5.703125 3.671875 -13.296875 3.671875q-11.90625 0 -18.875 -6.953125q-6.96875 -6.96875 -6.96875 -19.140625l0 -62.0625q0 -12.65625 -5.328125 -19.375q-5.3125 -6.71875 -18.234375 -6.71875q-11.65625 0 -19.890625 5.578125q-8.234375 5.578125 -16.84375 16.96875l0 89.171875l-20.765656 0l0 -88.921875q0 -19.75 -10.640625 -28.875l13.921875 -12.921875q4.3125 2.28125 8.359375 7.484375q4.0625 5.1875 6.5937805 11.765625q15.703125 -18.984375 40.53125 -18.984375q18.75 0 30.390625 10.0q11.65625 10.0 12.671875 28.25l0 69.40625q0 2.78125 1.765625 4.6875q1.78125 1.90625 4.578125 1.90625q4.046875 0 6.328125 -4.5625l14.953125 9.375zm41.79474 -11.40625q0 2.78125 1.765625 4.6875q1.78125 1.90625 4.5625 1.90625q4.0625 0 6.328125 -4.5625l14.953125 9.375q-3.546875 6.578125 -9.25 10.25q-5.703125 3.671875 -13.296875 3.671875q-11.90625 0 -18.875 -6.953125q-6.96875 -6.96875 -6.96875 -19.140625l0 -103.609375l20.78125 0l0 104.375zm-10.546875 -129.4375q-5.0625 0 -9.125 -4.046875q-4.046875 -4.0625 -4.046875 -9.125q0 -5.328125 4.046875 -9.375q4.0625 -4.0625 9.125 -4.0625q5.328125 0 9.5 4.0625q4.1875 4.046875 4.1875 9.375q0 5.0625 -4.1875 9.125q-4.171875 4.046875 -9.5 4.046875zm107.563965 153.5q-28.875 0 -45.09375 -16.71875q-16.203125 -16.71875 -16.203125 -46.359375q0 -20.265625 7.46875 -36.09375q7.46875 -15.828125 20.890625 -24.5625q13.4375 -8.75 30.921875 -8.75q13.921875 0 25.1875 5.703125q11.28125 5.6875 17.234375 15.578125q5.953125 9.875 4.9375 21.78125l-20.265625 0q1.015625 -10.390625 -6.328125 -17.34375q-7.34375 -6.96875 -19.765625 -6.96875q-11.640625 0 -20.640625 6.328125q-8.984375 6.328125 -13.9375 17.984375q-4.9375 11.65625 -4.9375 26.59375q0 21.28125 10.515625 32.6875q10.515625 11.40625 30.015625 11.40625q8.625 0 17.484375 -3.046875q8.859375 -3.046875 22.296875 -10.390625l9.625 15.703125q-22.296875 16.46875 -49.40625 16.46875z" fill-rule="nonzero"/><path fill="#c1884d" d="m368.5761 215.14339l0 0c0 -1.6235504 1.3161621 -2.939682 2.9396973 -2.939682l105.49069 0c0.7796631 0 1.5273743 0.30970764 2.0786743 0.8610077c0.55130005 0.55130005 0.86102295 1.2990265 0.86102295 2.0786743l0 11.758423c0 1.6235352 -1.3161621 2.939682 -2.9396973 2.939682l-105.49069 0c-1.6235352 0 -2.9396973 -1.3161469 -2.9396973 -2.939682z" fill-rule="evenodd"/><path fill="#c1884d" d="m484.9662 215.27406l0 0c-0.22903442 -1.6090393 0.8897705 -3.0986176 2.4989014 -3.327057l104.44049 -14.826309c0.7727661 -0.109695435 1.5575562 0.092041016 2.1817017 0.56085205c0.62420654 0.46881104 1.0366211 1.1662903 1.1466064 1.9389801l1.6588135 11.653427c0.2290039 1.6090546 -0.8897705 3.0986176 -2.4989014 3.327057l-104.44052 14.826309c-1.6091309 0.22843933 -3.0992737 -0.8907776 -3.328308 -2.4998322z" fill-rule="evenodd"/><path fill="#000000" fill-opacity="0.0" d="m426.90683 199.06816l0 0c0 -26.530853 21.507507 -48.03836 48.03836 -48.03836l15.293335 0l0 0c12.74057 0 24.95935 5.0611725 33.96826 14.070114c9.008972 9.008942 14.070129 21.227692 14.070129 33.968246l0 35.923264l0 0c0 26.530853 -21.507507 48.03836 -48.03839 48.03836l-15.293335 0c-26.530853 0 -48.03836 -21.507507 -48.03836 -48.03836z" fill-rule="evenodd"/><path stroke="#c1884d" stroke-width="16.0" stroke-linejoin="round" stroke-linecap="butt" d="m426.90683 199.06816l0 0c0 -26.530853 21.507507 -48.03836 48.03836 -48.03836l15.293335 0l0 0c12.74057 0 24.95935 5.0611725 33.96826 14.070114c9.008972 9.008942 14.070129 21.227692 14.070129 33.968246l0 35.923264l0 0c0 26.530853 -21.507507 48.03836 -48.03839 48.03836l-15.293335 0c-26.530853 0 -48.03836 -21.507507 -48.03836 -48.03836z" fill-rule="evenodd"/><path fill="#ffffff" d="m409.49738 229.8408l34.4252 0l0 4.1259766l-34.4252 0z" fill-rule="evenodd"/><path fill="#ffffff" d="m521.1063 225.06273l34.078735 -4.976364l1.795227 12.346451l-34.078735 4.9763794z" fill-rule="evenodd"/><path fill="#c1884d" d="m368.57742 260.41452l0 0c0 -14.792725 11.991882 -26.784592 26.784607 -26.784592l174.46231 0c7.1036987 0 13.916443 2.82193 18.939575 7.8450165c5.0230713 5.0230865 7.8450317 11.835861 7.8450317 18.939575l0 60.383575c0 14.792725 -11.991882 26.784576 -26.784607 26.784576l-174.46231 0l0 0c-14.792725 0 -26.784607 -11.991852 -26.784607 -26.784576z" fill-rule="evenodd"/><path fill="#c1884d" d="m368.57742 239.04022l0 0c0 -2.9880219 2.4222717 -5.4102936 5.410309 -5.4102936l217.21088 0c1.4349365 0 2.8110352 0.5700073 3.8256836 1.5846252c1.0146484 1.0146332 1.5846558 2.3907623 1.5846558 3.8256683l0 45.99829c0 2.988037 -2.4223022 5.410309 -5.4103394 5.410309l-217.21088 0c-2.988037 0 -5.410309 -2.4222717 -5.410309 -5.410309z" fill-rule="evenodd"/><path fill="#ffffff" d="m618.6168 275.42258l0 0c0 -2.5048523 2.0305786 -4.535431 4.5354004 -4.535431l0 0l0 0c1.2028809 0 2.3565063 0.47784424 3.2070312 1.3283997c0.85058594 0.8505554 1.3284302 2.0041504 1.3284302 3.2070312l0 43.433075c0 2.5048523 -2.0305786 4.535431 -4.5354614 4.535431l0 0l0 0c-2.5048218 0 -4.5354004 -2.0305786 -4.5354004 -4.535431z" fill-rule="evenodd"/><path fill="#ffffff" d="m332.63254 275.42258l0 0c0 -2.5048523 2.0305786 -4.535431 4.535431 -4.535431l0 0l0 0c1.2028809 0 2.3564758 0.47784424 3.2070312 1.3283997c0.85058594 0.8505554 1.3283997 2.0041504 1.3283997 3.2070312l0 16.409454c0 2.5048523 -2.0305786 4.535431 -4.535431 4.535431l0 0l0 0c-2.5048523 0 -4.535431 -2.0305786 -4.535431 -4.535431z" fill-rule="evenodd"/><path fill="#9a6936" d="m445.89502 316.95276l0 0c4.279114 0 7.7480164 3.4689026 7.7480164 7.7480164l0 0l0 0c0 2.0549316 -0.8162842 4.0256653 -2.2693481 5.4786987c-1.4530334 1.4530334 -3.423767 2.2693481 -5.478668 2.2693481l-49.66931 0c-4.279114 0 -7.7480164 -3.4689026 -7.7480164 -7.748047l0 0l0 0c0 -4.279114 3.4689026 -7.7480164 7.7480164 -7.7480164z" fill-rule="evenodd"/><path fill="#9a6936" d="m385.60367 297.04724l0 0c0 -4.279114 3.468933 -7.7480164 7.748047 -7.7480164l0 0l0 0c2.0549011 0 4.025635 0.8162842 5.478668 2.2693481c1.4530334 1.4530334 2.2693481 3.423767 2.2693481 5.478668l0 27.653534c0 4.2791443 -3.4689026 7.748047 -7.7480164 7.748047l0 0l0 0c-4.279114 0 -7.748047 -3.4689026 -7.748047 -7.748047z" fill-rule="evenodd"/></g></svg>